<svg xmlns="http://www.w3.org/2000/svg" viewBox="0 0 134.71 134.71"><defs><style>.cls-1{fill:#6772e5;}.cls-2{fill:#fff;}.cls-2,.cls-3,.cls-4{fill-rule:evenodd;}.cls-3{fill:#d0d2d3;}.cls-4{fill:#bbbdbf;}</style></defs><title>token native</title><g id="Layer_2" data-name="Layer 2"><g id="Layer_1-2" data-name="Layer 1"><rect class="cls-1" width="134.71" height="134.71" rx="67.35"/><path class="cls-2" d="M94.6,17.55c2.57,6.84-5.53,13.93-9.27,12.54-1.55-.58-3.1-1.28-4.45-1.15a7.76,7.76,0,0,0-2.25.78l2.11,2.81s4.72,2.79,7.4,4.45a1.55,1.55,0,0,0,1.13.21C97.58,35.32,100,21.85,94.6,17.55Z"/><path class="cls-2" d="M105.56,93.19c-22.66-4.4-45.88-29-32.17-30.48,8.36-.88,9-11,21-5.59a2.75,2.75,0,0,0,3.68-1.48l2.62-6.18c.6-1.73.49-4.37-.77-5.64-1.49-1.51-4.88-1.13-6.42-2-3.61-2.15-12.84-8-13.46-8.37S78,30.32,77.38,30a14.1,14.1,0,0,0-3-1.22,8.26,8.26,0,0,0-4.59.35C64.2,30.83,42.73,37,51.75,13.87c0,0-20.51,18-1,27.34A1,1,0,0,1,50.87,43c-6.19,3.8-28.3,18.85-19.8,51.41,5.9,11.08,22,20.12,43.58,26.43C82.23,117.94,101.66,101.85,105.56,93.19Z"/><path class="cls-3" d="M73.38,62.71c8.36-.88,9-11,21-5.59a2.75,2.75,0,0,0,3.68-1.48l2.62-6.18c.6-1.73.49-4.37-.77-5.64-.81-.83-2.2-1.09-3.68-1.33,6.37,2.46.6,11.21-1.3,11.14-2.25-.08-6.11-4.86-10.77-5s-7.36,8.16-13.58,8.74c-9.54.89-10.15-11.73-16-6.22s-24.25,45.17,20,69.64c7.61-2.91,27-19,30.91-27.65C82.89,88.79,59.67,64.16,73.38,62.71Z"/><path class="cls-4" d="M105.55,93.19c-21.24-4.14-43-26-34.31-29.95-4.67,2-10.63,9.81-10.63,22.89,0,13.85,9,28.34,14,34.7h0c7.24-2.77,25.28-17.58,30.28-26.44.4-.76.62-1.21.62-1.21Z"/></g></g></svg>